<svg width="94" height="30" fill="none" xmlns="http://www.w3.org/2000/svg"><path d="M14.003 8.821A7.167 7.167 0 0 0 6.826 16a7.167 7.167 0 0 0 7.177 7.179A7.167 7.167 0 0 0 21.18 16a7.167 7.167 0 0 0-7.177-7.179Zm0 11.846A4.675 4.675 0 0 1 9.337 16a4.671 4.671 0 0 1 4.666-4.667A4.671 4.671 0 0 1 18.67 16a4.675 4.675 0 0 1-4.666 4.667Zm9.145-12.14c0 .931-.75 1.675-1.674 1.675a1.674 1.674 0 1 1 1.674-1.674Zm4.754 1.7c-.107-2.243-.619-4.23-2.262-5.867-1.636-1.637-3.623-2.15-5.865-2.262-2.311-.13-9.239-.13-11.55 0-2.236.107-4.223.619-5.865 2.256C.717 5.99.21 7.978.098 10.22c-.13 2.311-.13 9.24 0 11.552.107 2.243.619 4.23 2.262 5.867 1.642 1.637 3.623 2.15 5.865 2.262 2.311.13 9.239.13 11.55 0 2.242-.107 4.229-.619 5.865-2.262 1.637-1.637 2.15-3.624 2.262-5.867.13-2.312.13-9.234 0-11.546Zm-2.986 14.026a4.725 4.725 0 0 1-2.661 2.662c-1.843.731-6.215.562-8.252.562-2.036 0-6.415.163-8.252-.562a4.725 4.725 0 0 1-2.66-2.662C2.36 22.41 2.527 18.037 2.527 16s-.162-6.417.562-8.253a4.725 4.725 0 0 1 2.661-2.662c1.843-.731 6.216-.562 8.252-.562 2.037 0 6.415-.163 8.252.562a4.725 4.725 0 0 1 2.66 2.662c.732 1.843.563 6.216.563 8.253s.169 6.417-.562 8.253ZM91.122 6.978c.018.306.018.613.018.919C91.14 17.237 85.366 28 74.812 28c-3.251 0-6.271-1.16-8.812-3.172.462.066.906.088 1.386.088 2.683 0 5.152-1.116 7.124-3.02-2.523-.065-4.637-2.1-5.365-4.9.355.067.71.11 1.084.11a5 5 0 0 0 1.51-.24c-2.63-.657-4.602-3.5-4.602-6.935v-.087a4.99 4.99 0 0 0 2.594.897c-1.546-1.27-2.558-3.435-2.558-5.885 0-1.312.284-2.515.781-3.565 2.825 4.287 7.071 7.087 11.833 7.393a9.756 9.756 0 0 1-.142-1.618C79.645 3.172 82.203 0 85.383 0c1.653 0 3.145.853 4.193 2.231A10.114 10.114 0 0 0 93.218.525c-.426 1.64-1.332 3.019-2.523 3.894C91.85 4.266 92.97 3.872 94 3.325c-.782 1.4-1.759 2.647-2.878 3.653Z" fill="#fff"/></svg>